<?xml version="1.0" encoding="UTF-8"?>
<svg xmlns="http://www.w3.org/2000/svg" viewBox="0 0 1798.74 777.06" fill="currentColor" fill-rule="evenodd" role="img" aria-label="LAAS – Luca Arnoldi App Studio">
<title>LAAS – Luca Arnoldi App Studio</title>
<path d="M0 485.87L435.84 485.87L618.83 73.45L719.8 301L584.9 301L559.01 359.35L745.12 359.35L801.26 485.87L864.39 485.87L808.25 359.35L965.14 359.35L909 485.87L971.43 485.87L1027.57 359.35L1214.16 359.35L1188.27 301L1053.02 301L1153.95 73.52L1336.91 485.87L1399.28 485.87L1183.7 0L1124.9 0L991.34 301L781.89 301L648.33 0L589.55 0L399.65 428L60.86 428L60.86 0L0 0ZM1451.95 50.72L1451.95 218.23L1502.59 268.87L1727.12 268.87L1737.97 279.73L1737.97 416.44L1726.41 428L1523.76 428L1512.53 416.78L1512.53 358.47L1451.95 358.47L1451.95 436.39L1501.44 485.87L1748.59 485.87L1798.74 435.72L1798.74 259.65L1749.09 210L1524.48 210L1512.53 198.05L1512.53 71.1L1524.06 59.57L1726.38 59.57L1737.97 71.16L1737.97 126.87L1798.74 126.87L1798.74 50.02L1748.72 0L1502.67 0Z"/>
<path d="M1103.98 776.53C1102.76 776.11 1101.91 775.48 1101.91 774.99C1101.9 774.76 1101.93 767.98 1101.96 759.94C1101.99 751.89 1102 744.47 1101.99 743.44C1101.96 741.52 1101.88 656.71 1101.9 656.38C1101.98 655.08 1109.56 654.49 1111.7 655.61C1112.91 656.24 1113.46 656.86 1113.76 657.94C1115.34 663.54 1116.92 664.87 1119.2 662.47C1119.87 661.77 1120.53 661.19 1120.67 661.19C1120.81 661.19 1121.4 660.76 1121.98 660.25C1122.56 659.73 1123.55 658.95 1124.19 658.51C1124.82 658.07 1125.72 657.33 1126.19 656.87C1126.72 656.35 1127.66 655.83 1128.71 655.48L1130.38 654.92L1146.83 654.99C1160.41 655.05 1163.39 655.12 1163.9 655.41C1164.92 655.99 1169.72 660.43 1170.53 661.54C1170.94 662.1 1171.56 662.78 1171.91 663.04C1173.26 664.08 1175.91 666.93 1175.91 667.36C1175.91 667.61 1176.16 668.21 1176.45 668.69C1177.37 670.16 1177.9 723.9 1177.04 727.6C1176.5 729.9 1175.59 730.94 1168.42 737.47C1166.71 739.04 1165 740.65 1164.63 741.07C1163.24 742.62 1162.97 742.65 1146.03 742.58C1129.85 742.52 1130.47 742.56 1128.53 741.34C1126.27 739.91 1123.62 737.84 1121.96 736.23C1119.41 733.76 1117.1 734.83 1117.65 738.25C1117.8 739.18 1117.91 743.56 1117.9 748.35C1117.89 753.01 1117.92 760.92 1117.95 765.94C1118.03 775.97 1118.11 775.42 1116.57 776.14C1115.26 776.76 1105.52 777.06 1103.98 776.53ZM1196.58 776.12L1195.88 775.56L1195.93 761.94C1195.95 754.44 1195.97 727.67 1195.97 702.44C1195.96 650.64 1195.78 655.19 1197.85 654.85C1204.37 653.77 1207.14 655.16 1209.03 660.5C1209.49 661.79 1209.61 661.91 1210.91 662.37C1212.21 662.83 1212.38 662.78 1213.65 661.62C1216.37 659.16 1216.97 658.67 1217.85 658.21C1218.37 657.95 1219.12 657.4 1219.53 656.99C1219.95 656.59 1220.94 655.91 1221.73 655.49L1223.18 654.72L1233.48 654.84C1261.08 655.16 1258.08 654.73 1262.16 658.94C1263.74 660.58 1265.82 662.82 1266.78 663.92C1267.75 665.03 1268.74 666 1268.99 666.08C1269.75 666.33 1271.16 669.67 1271.28 671.49C1271.81 679.53 1271.95 688.84 1271.79 706.44C1271.59 729.2 1271.68 728.27 1269.22 730.75C1266.7 733.3 1264.07 735.84 1262.8 736.97C1262.12 737.57 1261.11 738.49 1260.56 739.02C1259.52 740.02 1256.08 741.97 1254.78 742.3C1253.27 742.69 1225.5 742.32 1224.18 741.89C1223.71 741.74 1222.7 741.24 1221.93 740.78C1221.16 740.32 1220.4 739.94 1220.24 739.94C1220.08 739.94 1219.63 739.56 1219.24 739.09C1218.85 738.63 1218.2 738.08 1217.78 737.87C1217.37 737.66 1216.71 737.14 1216.32 736.73C1213.74 734.02 1210.89 734.79 1211.39 738.06C1211.5 738.75 1211.6 743.98 1211.62 749.69C1211.64 755.39 1211.73 763.4 1211.82 767.49L1211.98 774.92L1211.09 775.8L1210.21 776.69L1203.75 776.69C1197.42 776.69 1197.27 776.67 1196.58 776.12ZM878.91 742.69C875.24 742.49 875.18 742.43 873.29 736.5C872.19 733.07 871.98 732.9 870.2 734.01C866.55 736.29 864.14 737.96 862.64 739.26C859.05 742.38 859.07 742.38 841.85 742.54C824.77 742.71 825.75 742.89 821.87 738.98C819.95 737.05 818.58 735.8 817.82 735.31C815.93 734.08 812.32 730.08 811.5 728.29L810.91 727.02L810.87 697.67C810.82 666.27 810.78 667.28 811.99 666.18C814.35 664.01 815.75 662.71 817.8 660.74C819.13 659.46 820.53 658.26 820.92 658.06C821.31 657.86 822 657.35 822.45 656.93C822.91 656.51 823.79 655.86 824.41 655.49L825.53 654.81L841.16 654.83C859.36 654.85 858.5 654.73 862.53 657.79C863.36 658.42 864.12 658.93 864.23 658.93C864.34 658.94 864.77 659.34 865.2 659.82C866.03 660.77 868.79 662.29 869.31 662.09C870.19 661.75 870.54 660.15 870.49 656.56C870.29 642.19 870.43 620.46 870.72 619.44C871.12 618.06 872.46 617.3 875.1 616.95C876.06 616.82 877.66 616.34 878.83 615.83C881.43 614.69 884.21 614.36 885.1 615.09L885.67 615.56L885.69 678.07C885.7 726.11 885.63 740.73 885.4 741.23C884.82 742.5 883 742.91 878.91 742.69ZM1560.73 742.66C1560.15 742.45 1559.11 740.99 1558.79 739.94C1558.68 739.59 1558.52 739.2 1558.42 739.06C1558.31 738.92 1558.1 738.26 1557.93 737.59C1557.56 736.05 1556.51 733.96 1556.01 733.77C1555.41 733.54 1552.61 734.86 1551.53 735.89C1550.98 736.42 1550.08 737.17 1549.53 737.57C1548.98 737.96 1547.84 738.91 1547 739.68C1543.26 743.06 1545.03 742.8 1527.29 742.6C1509.56 742.4 1510.57 742.54 1508.12 740C1507.14 739 1506.05 737.94 1505.69 737.66C1504.21 736.51 1502.5 735.02 1501.84 734.31C1501.45 733.9 1500.36 732.73 1499.4 731.71C1498.44 730.69 1497.24 729.24 1496.72 728.49L1495.78 727.13L1495.76 692.34C1495.74 673.21 1495.77 657.27 1495.83 656.91C1496.09 655.25 1496.86 655.07 1503.88 655.04C1512.4 655.01 1511.93 654.54 1511.62 662.81C1511.23 673.1 1511.47 723.19 1511.91 723.98C1513.24 726.35 1514.27 727.49 1515.63 728.13L1517.03 728.78L1528.41 728.88C1534.67 728.94 1540.63 729 1541.66 729.02C1544.7 729.08 1546.98 727.6 1552.66 721.9C1554.64 719.9 1554.76 717.64 1554.4 688.74C1554.28 679.29 1554.17 668.2 1554.15 664.09L1554.11 656.63L1554.89 655.84L1555.67 655.06L1560.94 654.99C1566.63 654.9 1568.41 655.12 1569.34 655.99L1569.91 656.52L1569.93 691.92C1569.95 711.39 1570.04 729.96 1570.13 733.19C1570.32 739.87 1570.15 741.5 1569.16 742.21C1568.47 742.71 1561.81 743.06 1560.73 742.66ZM19.53 742.47C19.48 742.43 15.77 742.39 11.28 742.4C1.97 742.43 2.14 742.46 1.68 740.49C1.49 739.66 1.37 722.28 1.28 681.94C1.22 650.38 1.16 624.16 1.15 623.68C1.14 622.67 1.7 621.17 2.26 620.7C2.81 620.25 15.57 620.22 16.28 620.67C17.64 621.52 17.89 623.07 17.68 629.31C17.35 638.87 17.35 725.7 17.68 726.49C18.47 728.39 18.35 728.39 51.64 728.38L79.76 728.38L80.2 728.93C81.14 730.09 81.34 739.51 80.45 741.12C79.84 742.24 79.68 742.26 66.42 742.36C47.44 742.51 19.63 742.57 19.53 742.47ZM119.03 742.44L108.03 742.31L106.81 741.71C105.56 741.09 102.11 737.94 98.18 733.82C97 732.58 95.55 731.09 94.97 730.5C93.12 728.66 93.2 730.36 93.14 691.04L93.09 656.35L93.83 655.69L94.57 655.02L99.92 654.98C105.75 654.92 107.59 655.21 108.3 656.3C108.59 656.74 108.64 662.08 108.62 689.57C108.59 727.53 108.36 724.49 111.48 727.36L112.57 728.37L116.05 728.52C127.38 729.03 139.28 729.02 140.47 728.49C143 727.37 148.91 721.94 150.04 719.69C150.59 718.61 150.86 671.41 150.38 662.25C149.98 654.75 149.73 654.97 158.56 654.95L164.33 654.94L165.36 655.68C165.92 656.09 166.51 656.66 166.66 656.95C166.87 657.33 166.94 668.25 166.92 697.14C166.91 718.96 166.92 737.62 166.96 738.61C167.07 741.55 165.5 742.96 162.72 742.45C161.95 742.3 160.21 742.19 158.85 742.19C155.88 742.19 155.36 741.83 154.92 739.48C154.42 736.86 154.13 736.14 153.11 735.04C152.1 733.94 150.92 733.56 150.53 734.2C150.44 734.34 149.9 734.75 149.33 735.11C148.75 735.47 147.95 736.07 147.53 736.46C147.12 736.84 146.31 737.53 145.73 737.99C145.15 738.44 143.86 739.49 142.85 740.32C140.03 742.67 139.99 742.68 119.03 742.44ZM201.3 742.19C200.25 741.84 198.28 740.35 197.09 739.02C196.82 738.72 196.05 738.1 195.38 737.65C194.71 737.19 194.1 736.63 194.03 736.41C193.96 736.2 193.39 735.65 192.76 735.19C192.13 734.74 191.41 734.04 191.17 733.64C190.93 733.24 190.36 732.65 189.92 732.32C189.48 731.99 188.79 731.28 188.39 730.73C187.98 730.19 187.5 729.68 187.31 729.61C186.04 729.12 186.03 728.99 186.03 698.19L186.03 669.56L186.59 668.53C186.89 667.96 188.05 666.55 189.17 665.4C190.28 664.25 191.94 662.48 192.86 661.46C194.97 659.12 195.2 658.9 195.91 658.44C196.22 658.23 197.27 657.37 198.23 656.53C200.42 654.61 201.33 654.37 205.67 654.56C207.38 654.64 216.56 654.74 226.06 654.78L243.33 654.86L244.5 655.42C245.14 655.73 246.02 656.4 246.47 656.9C246.92 657.41 247.61 657.99 248.01 658.19C248.97 658.68 257.14 666.87 257.48 667.68C257.78 668.4 258.05 678.48 257.81 679.79C257.5 681.41 257.13 681.49 250.25 681.45C241.5 681.4 241.61 681.52 242.16 672.94C242.27 671.33 241.87 670.41 240.49 669.07C238.99 667.62 239.06 667.62 222.68 667.93C206.83 668.23 205.25 668.35 204.34 669.39C204.03 669.73 203.35 670.44 202.81 670.96C201.45 672.27 201.49 671.41 201.55 698.19C201.61 724.5 201.52 723.1 203.23 725.61C204.66 727.72 204.55 727.64 206.24 728.09C209.21 728.9 237.86 729.09 239.03 728.32C241.78 726.5 242.29 725.26 242.18 720.68C242.04 714.92 242.16 714.84 249.8 715.05C256.11 715.22 256.66 715.35 257.27 716.81C257.7 717.86 257.76 728.24 257.34 729.06C256.84 730.02 247.97 738.85 245.91 740.44C245.57 740.71 245.06 741.14 244.78 741.42C243.66 742.52 243.77 742.52 222.61 742.55C205.13 742.57 202.29 742.52 201.3 742.19ZM285.98 742.36C284.79 742.03 284.6 741.88 282.67 739.81C281.91 739.01 280.83 737.99 280.26 737.55C279.68 737.12 278.89 736.45 278.5 736.08C278.11 735.71 277.49 735.25 277.14 735.06C276.78 734.87 276.02 734.1 275.43 733.34C274.85 732.59 274.3 731.93 274.2 731.89C273.67 731.65 272.31 729.2 271.67 727.33C271.25 726.12 271.25 725.95 271.68 723.56C272.06 721.52 272.14 719.69 272.15 713.56C272.16 705.1 272.66 702.73 274.57 701.91C274.69 701.85 275.11 701.42 275.5 700.94C275.9 700.46 276.69 699.72 277.25 699.31C277.82 698.9 278.68 698.19 279.15 697.75C279.63 697.3 280.14 696.94 280.29 696.94C280.43 696.94 281.11 696.37 281.79 695.67C282.48 694.97 283.51 694.12 284.1 693.77C284.68 693.42 285.38 692.87 285.64 692.53C287.07 690.72 290.16 690.5 314.72 690.46C329.83 690.44 328.51 691.38 328.74 680.52L328.91 672.81L328.29 671.56C326.44 667.79 327.08 667.9 307.5 668L291.53 668.08L289.03 668.76C283.32 670.33 277.25 670.07 276.3 668.21C274.57 664.84 275.34 663.1 280.4 658.94C280.98 658.46 282.06 657.55 282.79 656.93C285.23 654.84 284.05 654.94 307.56 654.94C332.14 654.94 330.24 654.73 334 657.79C335.31 658.85 336.69 660.13 337.07 660.63C337.45 661.13 337.94 661.72 338.15 661.94C339.56 663.41 342.15 666.44 342.53 667.06C342.78 667.47 343.26 668.22 343.58 668.71L344.18 669.62L344.28 699.52C344.33 715.97 344.43 729.52 344.5 729.63C344.57 729.75 344.65 732.14 344.68 734.95C344.74 742.3 344.64 742.45 339.59 742.63C336.09 742.76 335.49 742.64 335.09 741.74C334.92 741.37 334.31 740.28 333.73 739.33C333.15 738.38 332.38 736.84 332.03 735.91C331.06 733.38 328.77 732.48 327.39 734.09C327.06 734.49 326.3 735.12 325.72 735.5C325.14 735.88 324.66 736.29 324.66 736.41C324.66 736.52 324.18 736.94 323.6 737.32C323.01 737.71 322.14 738.4 321.66 738.85C320.62 739.84 317.68 741.79 316.86 742.05C316.55 742.15 311.22 742.27 305.03 742.32C298.85 742.37 292.27 742.46 290.41 742.53C288.21 742.61 286.67 742.55 285.98 742.36ZM395.75 742.49C393.83 742.3 393.33 739.44 394.87 737.52C395.46 736.78 395.82 735.98 396.06 734.81C396.25 733.9 396.8 732.34 397.26 731.35C397.73 730.37 398.42 728.61 398.78 727.44C399.15 726.27 399.63 725.01 399.86 724.65C400.66 723.39 401.91 721.2 401.91 721.06C401.91 720.98 402.31 720.09 402.79 719.07C403.28 718.04 403.79 716.56 403.94 715.77C404.21 714.31 404.69 713.13 405.3 712.44C406.04 711.58 408.47 706.44 408.92 704.76C409.19 703.77 409.68 702.36 410.02 701.63C410.36 700.91 410.99 699.24 411.42 697.94C411.85 696.63 412.52 695.03 412.92 694.38C413.32 693.73 413.81 692.47 414.02 691.58C414.23 690.68 414.75 689.19 415.17 688.26C415.6 687.32 416.21 685.45 416.53 684.1C416.93 682.41 417.35 681.3 417.87 680.58C418.29 679.99 418.77 678.97 418.93 678.29C419.09 677.62 419.73 676.05 420.35 674.81C420.97 673.57 421.69 671.79 421.95 670.85C422.21 669.91 422.69 668.62 423.01 667.98C423.33 667.34 423.91 666.02 424.3 665.06C424.68 664.1 425.2 663.03 425.45 662.69C425.7 662.34 426.23 661.16 426.63 660.06C427.03 658.96 427.63 657.56 427.96 656.94C428.3 656.32 428.89 654.86 429.27 653.69C429.66 652.52 430.29 651.05 430.68 650.43C431.07 649.8 431.57 648.8 431.78 648.2C431.99 647.6 432.61 646.2 433.16 645.08C433.71 643.97 434.4 642.11 434.69 640.94C434.99 639.77 435.54 638.25 435.92 637.56C436.3 636.87 436.79 635.69 437.02 634.94C437.24 634.18 437.64 633.17 437.91 632.69C438.9 630.89 439.59 629.28 439.88 628.06C440.24 626.58 442.26 622.3 442.99 621.5C443.88 620.52 445.11 620.37 452.47 620.4C461.15 620.42 461.87 620.72 462.78 624.72C462.99 625.65 463.55 627.07 464.03 627.86C464.52 628.66 464.91 629.46 464.91 629.64C464.91 630.17 465.95 632.46 466.8 633.81C467.25 634.52 467.77 635.86 468.01 636.9C468.24 637.91 468.73 639.32 469.09 640.03C469.45 640.73 470.06 642.18 470.43 643.24C470.81 644.3 471.51 645.82 471.99 646.62C472.47 647.41 472.95 648.46 473.04 648.94C473.14 649.42 473.64 650.71 474.15 651.81C475.25 654.19 475.54 654.95 475.91 656.4C476.07 657 476.52 657.94 476.93 658.5C477.33 659.06 477.78 659.98 477.92 660.54C478.23 661.76 479.18 663.94 479.41 663.94C479.64 663.94 480.57 666.1 480.91 667.44C481.07 668.06 481.53 669.18 481.92 669.94C482.32 670.69 482.97 672.32 483.38 673.56C483.79 674.8 484.52 676.63 485.01 677.62C485.51 678.61 485.91 679.55 485.91 679.71C485.91 679.87 486.35 681.03 486.9 682.28C487.44 683.54 488.17 685.65 488.53 686.97C488.88 688.3 489.51 689.98 489.91 690.72C490.32 691.46 490.82 692.62 491.04 693.31C491.25 694 491.64 694.96 491.91 695.44C492.98 697.38 493.42 698.44 493.78 700.02C494 700.93 494.45 702.09 494.79 702.59C495.13 703.1 495.57 704.03 495.76 704.66C496.19 706.06 496.94 707.67 497.92 709.26C498.32 709.91 498.73 710.76 498.81 711.13C498.9 711.51 499.41 712.7 499.94 713.79C500.47 714.88 500.91 715.96 500.91 716.2C500.91 717.08 501.92 719.85 502.67 721.03C503.09 721.71 503.79 723.06 504.22 724.03C504.65 725.01 505.19 726.09 505.41 726.44C505.64 726.78 506.13 728.02 506.51 729.19C506.89 730.36 507.34 731.48 507.52 731.69C508 732.26 508.84 734.2 509.04 735.19C509.24 736.18 509.77 737.29 510.45 738.16C510.79 738.6 510.91 739.18 510.91 740.33C510.91 742.79 511.22 742.71 502.42 742.53C494.01 742.36 494.29 742.43 493.29 740.26C491.5 736.38 491.01 735.22 490.8 734.31C490.7 733.9 490.29 733.02 489.88 732.35C489.47 731.68 488.91 730.56 488.63 729.85C488.35 729.14 487.8 727.88 487.4 727.05C486.99 726.21 486.44 724.64 486.16 723.55C485.54 721.13 484.84 719.06 484.2 717.77C483.93 717.25 483.42 716.01 483.05 715.04C482.36 713.16 481.06 711.41 479.94 710.83C479.39 710.54 476.73 710.49 465.03 710.51C457.19 710.53 444.77 710.49 437.41 710.44C426 710.34 423.92 710.38 423.28 710.7C422.35 711.15 420.27 715.05 419.29 718.19C418.92 719.36 418.3 721.01 417.9 721.86C417.5 722.72 417.01 724.12 416.81 724.99C416.46 726.51 416.03 727.58 414.81 729.94C414.49 730.56 414.1 731.66 413.94 732.39C413.79 733.12 413.27 734.47 412.78 735.4C412.3 736.33 411.91 737.32 411.91 737.6C411.91 739.02 410.77 740.97 409.35 741.98C408.57 742.53 399.65 742.86 395.75 742.49ZM529.91 742.45C524.69 742.3 523.97 742.15 523.24 741.02C522.81 740.37 522.79 738.6 522.76 705.95C522.75 682.55 522.64 669.22 522.42 664.22C522.01 654.75 522.08 654.64 528.04 654.48L531.04 654.4L532.35 655.36C533.75 656.38 534.66 658.11 535.01 660.4C535.36 662.67 536.23 663.67 537.87 663.68C538.53 663.69 539.91 662.8 539.91 662.37C539.91 662.09 543.39 658.69 543.68 658.69C543.77 658.69 544.48 658.12 545.27 657.43C547.97 655.07 548.57 654.97 560.85 654.92L570.18 654.88L571.18 655.55C572.62 656.5 572.74 657 572.43 660.95C572.28 662.81 572.16 664.62 572.16 664.97C572.16 665.93 570.76 667.87 569.95 668.05C569.57 668.14 564.82 668.23 559.4 668.26C548.09 668.32 548.72 668.21 545.45 670.64C542.03 673.18 540.27 675.04 539.51 676.93L538.85 678.56L538.93 689.31C539.06 708.28 538.89 739.96 538.65 740.52C538.15 741.71 536.56 742.74 535.37 742.64C535.05 742.61 532.59 742.52 529.91 742.45ZM585.98 742.18C585.13 741.77 584.9 741.52 584.77 740.82C584.47 739.21 584.27 675.05 584.55 668.69C584.68 665.78 584.62 663.86 584.3 660.99C583.82 656.58 583.82 656.56 585.22 655.57C586.49 654.67 591.48 654.4 593.13 655.14C593.95 655.51 595.66 657.08 595.66 657.45C595.66 659.22 598.68 663.94 599.82 663.94C600.02 663.94 601.27 662.83 602.61 661.47C609.39 654.57 607.98 654.94 627.86 654.92L644.03 654.9L645.31 655.49C646.01 655.82 646.94 656.48 647.37 656.97C647.79 657.46 648.81 658.16 649.62 658.52C651.08 659.18 651.44 659.51 654.41 662.92C655.17 663.79 656.25 664.94 656.82 665.48C659.01 667.56 658.86 664.72 658.82 704.69C658.79 737.77 658.76 739.87 658.34 740.83C657.65 742.39 656.77 742.78 654.45 742.55C653.4 742.45 651.04 742.38 649.22 742.41C645.26 742.46 644.62 742.24 643.87 740.52C643.3 739.23 643.33 742.99 643.56 700.46C643.71 673.09 643.72 673.45 642.18 671.06C641.4 669.85 641.11 669.6 639.65 668.83L638.52 668.24L624.62 668.05C610.78 667.87 610.71 667.87 609.62 668.4C608.37 669 602.64 674.5 601.52 676.17L600.78 677.27L600.75 708.83C600.71 744.75 600.92 741.53 598.54 742.28C596.47 742.93 587.43 742.86 585.98 742.18ZM693.16 742.36C691.92 742.01 689.28 740.01 688.61 738.91C688.38 738.53 687.96 738.1 687.67 737.95C687.29 737.74 682.38 733.1 681.11 731.75C681.01 731.65 680.43 731.03 679.81 730.37C677.95 728.41 678.07 730.4 677.97 698.71L677.89 670.11L678.52 668.84C678.87 668.14 679.6 667.06 680.15 666.44C680.7 665.82 681.69 664.7 682.34 663.95C683 663.21 684.06 662.05 684.71 661.39C685.35 660.73 686.03 659.99 686.21 659.74C686.39 659.49 687.1 658.97 687.78 658.58C688.47 658.18 689.55 657.38 690.19 656.8C692.18 654.96 693.12 654.9 720.03 654.84L736.28 654.81L737.67 655.46C738.43 655.82 739.34 656.46 739.69 656.87C740.05 657.29 740.66 657.81 741.06 658.02C741.46 658.23 742.92 659.51 744.3 660.86C745.68 662.21 747.4 663.76 748.12 664.31C749.53 665.38 751.48 667.7 751.93 668.85C752.13 669.35 752.19 672.17 752.13 678.19C752.02 688.59 752.02 688.62 752.12 710.56C752.17 720.19 752.12 728.29 752.02 728.56C751.84 729.07 751.27 729.72 748.84 732.19C748.09 732.94 747.28 733.87 747.04 734.25C746.8 734.63 746.45 734.94 746.27 734.94C746.09 734.94 745.24 735.61 744.39 736.44C743.54 737.26 742.73 737.94 742.59 737.94C742.45 737.94 741.99 738.3 741.56 738.75C738.54 741.91 736.15 742.54 727.66 742.4C725.53 742.36 717.15 742.41 709.03 742.51C697.41 742.65 694.05 742.62 693.16 742.36ZM790.78 742.45L785.03 742.31L783.41 741.26C781.82 740.23 778.26 737.03 774.9 733.61C773.39 732.07 771.86 729.62 771.3 727.84C771.22 727.58 771.17 704.29 771.19 676.09C771.21 647.89 771.21 623.89 771.18 622.77C771.1 619.3 772.44 617.42 775.26 617.06C777.23 616.81 778.4 616.46 780 615.66C782.02 614.64 784.97 614.38 785.93 615.15L786.58 615.66L786.6 669.88L786.61 724.11L787.36 725.58C788.84 728.52 790.03 729.02 795.78 729.1C798.12 729.14 800.12 729.17 800.22 729.18C801.15 729.23 801.61 731.09 801.76 735.44C802 742.03 801.69 742.7 798.41 742.63C797.38 742.61 793.95 742.53 790.78 742.45ZM918.03 742.42C917.35 742.29 914.82 742.21 912.41 742.25C907.6 742.32 907.2 742.23 906.51 740.89C905.86 739.63 905.94 656.72 906.59 655.81C906.84 655.48 907.26 655.12 907.53 655.03C907.93 654.9 917.57 654.81 920.08 654.91C920.38 654.93 920.93 655.19 921.29 655.51L921.95 656.07L921.93 698.38C921.91 721.77 921.8 740.94 921.68 741.26C921.22 742.46 920.14 742.8 918.03 742.42ZM973.17 742.07C972.22 741.07 972.53 738.82 973.91 736.62C974.49 735.69 975.23 734.05 975.54 732.98C975.85 731.91 976.45 730.42 976.86 729.67C977.28 728.92 977.76 727.6 977.93 726.73C978.1 725.85 978.73 724.19 979.35 722.98C979.97 721.79 980.67 720.24 980.92 719.54C981.16 718.83 981.64 717.81 982 717.25C982.35 716.7 982.82 715.53 983.04 714.65C983.27 713.78 983.83 712.27 984.29 711.31C984.75 710.35 985.37 708.83 985.66 707.94C985.96 707.04 986.58 705.69 987.03 704.94C987.48 704.18 988.11 702.77 988.43 701.81C988.75 700.85 989.14 699.89 989.3 699.69C989.98 698.84 990.64 697.19 990.91 695.67C991.19 694.1 992.07 691.94 992.43 691.94C992.64 691.94 993.78 689.14 994.02 688C994.12 687.56 994.3 687.13 994.43 687.05C994.79 686.82 995.57 684.94 995.91 683.44C996.3 681.75 996.86 680.27 997.41 679.44C997.64 679.09 997.9 678.59 997.98 678.31C998.55 676.41 999.24 674.79 999.86 673.88C1000.27 673.29 1000.68 672.42 1000.78 671.94C1000.89 671.46 1001.39 670.16 1001.91 669.06C1002.43 667.96 1003.17 666.05 1003.55 664.81C1003.93 663.57 1004.54 662 1004.91 661.31C1005.29 660.62 1005.73 659.61 1005.9 659.06C1006.07 658.51 1006.76 656.96 1007.44 655.61C1008.11 654.27 1008.78 652.63 1008.93 651.99C1009.07 651.34 1009.58 649.95 1010.05 648.91C1010.52 647.86 1010.91 646.89 1010.91 646.76C1010.91 646.26 1012.22 643.32 1012.78 642.58C1013.34 641.84 1014.16 639.76 1014.16 639.09C1014.16 638.9 1014.55 637.98 1015.02 637.03C1015.8 635.46 1016.36 634.09 1016.89 632.43C1017 632.08 1017.44 631.18 1017.86 630.43C1018.28 629.68 1018.79 628.44 1019 627.69C1019.96 624.18 1020.15 623.61 1020.52 623.21C1020.73 622.97 1020.91 622.67 1020.91 622.54C1020.91 622.4 1021.32 621.87 1021.83 621.35L1022.75 620.4L1030.52 620.57C1039.06 620.76 1038.6 620.67 1040.51 622.51C1041.42 623.39 1041.66 623.81 1041.91 625.06C1042.08 625.89 1042.59 627.29 1043.04 628.19C1043.5 629.08 1044.18 630.82 1044.56 632.06C1044.94 633.29 1045.55 634.76 1045.91 635.31C1046.28 635.86 1046.9 637.21 1047.29 638.31C1047.68 639.41 1048.36 641.04 1048.8 641.94C1049.24 642.83 1049.79 644.24 1050.02 645.06C1050.26 645.89 1050.73 647.07 1051.07 647.69C1051.42 648.31 1052.02 649.78 1052.42 650.97C1052.82 652.16 1053.54 653.86 1054.02 654.74C1054.51 655.63 1054.91 656.56 1054.91 656.81C1054.91 657.06 1055.23 657.95 1055.63 658.79C1056.02 659.63 1056.6 661.04 1056.91 661.94C1057.72 664.23 1058.34 665.64 1058.89 666.41C1059.15 666.77 1059.58 667.74 1059.85 668.57C1060.12 669.39 1060.81 670.96 1061.37 672.06C1061.93 673.16 1062.52 674.62 1062.69 675.31C1062.98 676.55 1064.03 678.83 1064.41 679.06C1064.52 679.13 1064.75 679.77 1064.92 680.49C1065.29 682.02 1066.06 683.85 1066.44 684.08C1066.84 684.33 1067.61 686.28 1068.04 688.12C1068.25 689.02 1068.69 690.28 1069.03 690.91C1069.36 691.55 1069.93 692.96 1070.29 694.06C1070.65 695.16 1071.13 696.34 1071.36 696.69C1072.04 697.7 1072.56 698.97 1072.9 700.44C1073.08 701.19 1073.59 702.55 1074.04 703.46C1074.48 704.36 1075.14 705.93 1075.49 706.96C1075.84 707.98 1076.52 709.54 1077.01 710.44C1077.5 711.33 1077.9 712.24 1077.9 712.46C1077.91 712.69 1078.53 714.09 1079.28 715.59C1080.03 717.08 1080.77 718.87 1080.91 719.56C1081.06 720.25 1081.57 721.43 1082.04 722.18C1082.52 722.93 1082.91 723.69 1082.91 723.88C1082.91 724.07 1083.43 725.25 1084.07 726.52C1084.7 727.78 1085.49 729.52 1085.82 730.39C1086.15 731.26 1086.68 732.5 1087.01 733.14C1087.33 733.79 1087.78 734.93 1088 735.69C1088.21 736.44 1088.68 737.48 1089.03 737.99C1089.44 738.59 1089.66 739.25 1089.66 739.9C1089.66 742.42 1089.08 742.6 1080.87 742.58C1073.39 742.56 1073.47 742.59 1072.46 740.04C1072.13 739.23 1071.67 738.34 1071.43 738.06C1070.98 737.56 1070.13 735.81 1069.79 734.71C1069.69 734.38 1069.3 733.59 1068.92 732.96C1068.55 732.33 1067.84 730.52 1067.33 728.94C1065.45 723.04 1064.52 720.54 1063.86 719.67C1063.48 719.19 1063.05 718.17 1062.89 717.42C1062.51 715.62 1061.06 712.73 1059.92 711.47L1058.99 710.46L1035.26 710.43C1022.21 710.41 1009.73 710.38 1007.52 710.37C1002.7 710.35 1002 710.58 1000.75 712.56C1000.31 713.25 999.74 714.16 999.47 714.59C999.2 715.02 998.73 716.6 998.43 718.09C998.14 719.59 997.69 721.09 997.45 721.44C996.75 722.43 996.19 723.76 995.89 725.18C995.73 725.9 995.23 727.13 994.77 727.9C994.31 728.68 993.66 730.27 993.32 731.44C992.98 732.61 992.3 734.33 991.81 735.27C991.31 736.21 990.91 737.22 990.9 737.52C990.89 738.82 989.28 741.2 987.72 742.23C987.1 742.64 986.39 742.68 980.39 742.69L973.75 742.69L973.17 742.07ZM1343.97 742.33C1342.95 742.07 1340.73 740.12 1334.51 734.01C1333.93 733.44 1332.96 732.67 1332.37 732.3C1328.95 730.18 1328.98 730.3 1328.88 720.51L1328.78 712.2L1329.59 711.4L1330.39 710.59L1335.16 710.4C1337.78 710.29 1340.03 710.14 1340.16 710.06C1340.43 709.9 1342.25 710.32 1343.09 710.74C1344.1 711.24 1344.49 713.06 1344.17 715.75C1343.09 724.76 1346.27 729.33 1353.27 728.84C1354.52 728.76 1364.2 728.67 1374.78 728.65C1398.01 728.62 1397.12 728.74 1398.91 725.4L1399.77 723.81L1399.97 709.69C1400.17 695.83 1400.11 692.59 1399.64 692.3C1399.51 692.22 1399.19 691.73 1398.92 691.21C1398.23 689.85 1397.46 689.21 1395.88 688.68C1392.62 687.58 1392.99 687.59 1369.41 687.57C1343.09 687.55 1344.71 687.71 1341.75 684.82C1339.53 682.65 1338.26 681.5 1337.6 681.07C1337.22 680.83 1336.91 680.5 1336.91 680.35C1336.91 680.2 1336.32 679.5 1335.6 678.8C1334.88 678.11 1334.01 677.22 1333.67 676.84C1333.33 676.45 1332.81 676.04 1332.52 675.93C1329.53 674.79 1329.06 670.73 1329.27 647.86C1329.39 634.22 1329.42 633.99 1330.91 633C1332.26 632.1 1333.33 631.2 1335.04 629.56C1335.91 628.74 1337.55 627.23 1338.7 626.21C1339.85 625.19 1341.09 623.94 1341.47 623.43C1342.1 622.57 1343.44 621.53 1344.9 620.74C1345.47 620.44 1385.34 620.25 1397.16 620.5L1400.29 620.56L1402.04 621.6C1403 622.17 1404.07 622.91 1404.43 623.23C1404.78 623.56 1405.62 624.28 1406.3 624.82C1406.98 625.37 1408.06 626.32 1408.71 626.94C1409.35 627.56 1410.14 628.3 1410.46 628.58C1411.72 629.71 1413.02 631.38 1413.73 632.78L1414.48 634.25L1414.68 641.48C1414.97 651.57 1415.55 650.84 1407.36 650.78C1399.31 650.73 1399.25 650.68 1399.36 644.88C1399.55 634.89 1397.68 633.55 1384.53 634.22C1381.14 634.4 1375.34 634.42 1368.16 634.3C1350.8 634.01 1351.29 633.99 1349.59 634.81C1346.34 636.37 1344.96 639.54 1345.44 644.35C1345.71 647.15 1345.77 662.65 1345.51 665.24C1345.13 669.1 1346.62 672.02 1349.55 673.13L1351.03 673.69L1375.16 673.55C1402.29 673.39 1401.82 673.37 1403.66 675.03C1404.21 675.53 1404.75 675.94 1404.86 675.94C1405.53 675.94 1413.92 684.68 1414.65 686.14L1415.43 687.72L1415.55 701.02C1415.61 708.33 1415.71 717.55 1415.77 721.5L1415.89 728.7L1414.76 730C1412.02 733.19 1409.01 735.79 1405.44 738.06C1404.6 738.6 1403.91 739.12 1403.91 739.23C1403.91 739.33 1403.23 739.88 1402.41 740.44C1401.58 741 1400.91 741.55 1400.91 741.66C1400.91 742.5 1400 742.53 1372.28 742.56C1353.96 742.58 1344.69 742.5 1343.97 742.33ZM1457.5 742.22C1456.79 741.96 1456 741.54 1455.72 741.28C1452.91 738.61 1452.15 737.93 1451.34 737.32C1450.82 736.94 1449.98 736.24 1449.48 735.78C1448.98 735.32 1448.45 734.94 1448.31 734.94C1447.93 734.94 1444.23 731.05 1444.04 730.46C1443.95 730.17 1443.77 729.94 1443.65 729.94C1442.52 729.94 1442.54 730.53 1442.52 699.02L1442.5 669.44L1441.78 668.69L1441.07 667.94L1437.8 667.94C1436 667.95 1433.75 668.06 1432.78 668.2C1428.35 668.86 1427.11 667.19 1427.33 660.88C1427.54 655.02 1427.56 655.01 1435.04 654.88C1442.93 654.74 1442.41 655.59 1442.22 643.09L1442.08 633.94L1442.99 633.09C1443.49 632.61 1444.33 632.09 1444.84 631.92C1445.36 631.75 1446.02 631.46 1446.31 631.27C1446.6 631.08 1447.78 630.59 1448.93 630.17C1450.09 629.75 1451.32 629.14 1451.66 628.82C1453.4 627.19 1456.36 626.6 1457.43 627.67L1458.16 628.4L1458.16 640.57C1458.16 656.67 1456.77 654.99 1470.23 655.08L1479.68 655.15L1480.55 655.8C1481.64 656.64 1481.75 657.12 1481.46 659.84C1481.33 661.06 1481.28 662.76 1481.34 663.6C1481.49 665.4 1480.9 667.29 1480.06 667.74C1479.7 667.94 1476.42 668.03 1469.53 668.04C1456.4 668.07 1457.51 667.29 1457.92 676.16C1458.1 680.12 1458.13 688.99 1458.02 703.09L1457.84 724.11L1458.51 725.34C1459.16 726.52 1460.76 727.94 1461.45 727.94C1461.64 727.94 1462.21 728.16 1462.73 728.44C1463.6 728.91 1464.14 728.94 1471.6 728.94C1480.17 728.94 1481.06 729.05 1482.2 730.19L1482.91 730.9L1482.91 735.18C1482.91 741.85 1482.57 742.59 1479.58 742.5C1476.2 742.41 1468.53 742.44 1463.66 742.57C1459.28 742.68 1458.65 742.65 1457.5 742.22ZM1604.03 742.24C1602.52 741.35 1599.62 739.03 1597.56 737.06C1597.13 736.65 1596.22 735.86 1595.55 735.31C1592.62 732.92 1591.08 731.16 1589.63 728.56C1588.86 727.19 1588.68 716.51 1588.88 684.56C1588.95 672.9 1589.04 669.42 1589.3 668.94C1589.47 668.59 1589.87 667.77 1590.17 667.12C1590.53 666.33 1591.27 665.44 1592.36 664.49C1593.27 663.71 1595.16 661.91 1596.57 660.5C1597.97 659.09 1599.2 657.94 1599.31 657.94C1599.42 657.94 1600.02 657.51 1600.64 656.99C1601.27 656.46 1602.18 655.88 1602.66 655.69C1603.14 655.51 1603.69 655.23 1603.89 655.08C1604.35 654.73 1612.01 654.66 1625.16 654.91C1636.56 655.12 1635.91 655.03 1638.64 656.79C1639.25 657.18 1640.15 657.67 1640.63 657.87C1641.11 658.07 1642.19 658.84 1643.01 659.58C1645.25 661.57 1645.99 661.92 1646.67 661.3C1647.79 660.29 1647.76 660.66 1647.9 639.69C1648.02 621.25 1648.07 619.5 1648.47 618.77C1649.05 617.71 1650.25 617.03 1651.91 616.81C1652.66 616.71 1654.41 616.25 1655.78 615.8C1659.89 614.45 1662.38 614.41 1662.79 615.7C1662.87 615.96 1662.93 640.16 1662.93 669.49C1662.92 705.94 1663.01 725.36 1663.21 730.87C1663.64 742.58 1663.53 742.82 1657.71 742.64C1653.47 742.52 1651.92 741.45 1651.91 738.64C1651.9 736.04 1648.68 733.34 1647.05 734.57C1646.78 734.77 1646.36 734.94 1646.11 734.94C1645.85 734.94 1645.13 735.41 1644.5 735.99C1643.87 736.58 1642.87 737.39 1642.28 737.81C1641.68 738.22 1640.54 739.04 1639.74 739.63C1637.39 741.36 1636.48 741.9 1635.48 742.16C1633.49 742.66 1604.88 742.74 1604.03 742.24ZM1686.91 742.5C1684.89 741.93 1683.97 740.33 1684.25 737.87C1684.54 735.36 1684.48 715.24 1684.16 705.44C1683.89 697.29 1683.89 693.44 1684.16 683.44C1684.34 676.77 1684.45 669.51 1684.39 667.31C1684.33 665.11 1684.28 661.8 1684.28 659.95L1684.28 656.59L1685.3 655.81L1686.32 655.03L1691.05 654.94C1699.14 654.78 1699.79 654.89 1700.3 656.5C1700.4 656.8 1700.48 675.67 1700.49 698.44C1700.5 745.23 1700.66 741.4 1698.6 742.1C1697.7 742.4 1687.77 742.74 1686.91 742.5ZM1750.85 742.54C1750.78 742.48 1747.31 742.41 1743.13 742.41L1735.53 742.39L1733.96 741.61C1733.04 741.15 1732.05 740.41 1731.58 739.84C1731.14 739.3 1730.52 738.62 1730.2 738.33C1729.88 738.05 1729.15 737.36 1728.57 736.81C1727.99 736.26 1726.57 734.97 1725.41 733.94C1721.98 730.87 1721.08 729.85 1720.1 727.9L1719.16 726.04L1719.16 698.02L1719.16 670L1720.16 668.53C1721.12 667.1 1724.22 663.65 1727.3 660.57C1733.04 654.83 1735.01 653.86 1739.33 654.67C1739.99 654.79 1749.28 654.91 1759.96 654.93L1779.39 654.96L1780.35 655.51C1781.37 656.09 1783.39 657.76 1785.5 659.75C1786.19 660.4 1786.95 661 1787.19 661.07C1787.44 661.15 1787.7 661.42 1787.78 661.67C1787.86 661.92 1788.51 662.7 1789.23 663.39C1792.13 666.21 1792.75 666.97 1793.32 668.36L1793.91 669.81L1793.94 697.94C1793.97 730.5 1794.14 728.1 1791.53 730.87C1787.73 734.9 1784.6 737.94 1784.26 737.94C1784.12 737.94 1783.55 738.42 1783.01 739C1781.6 740.51 1779.56 741.9 1778.34 742.17C1777.26 742.41 1751.07 742.77 1750.85 742.54ZM1241.3 728.98L1250.82 728.81L1251.8 728.16C1255.8 725.5 1256.13 724.13 1256 710.56C1255.97 706.3 1255.91 696.17 1255.89 688.06C1255.83 670.07 1255.9 670.46 1252.38 668.67L1250.97 667.96L1236.88 668.03L1222.78 668.1L1221.52 668.75C1220.82 669.11 1220.09 669.59 1219.89 669.83C1219.7 670.07 1219.03 670.67 1218.41 671.17C1217.26 672.07 1213.6 675.91 1212.49 677.35L1211.89 678.14L1211.77 698.25C1211.65 717.87 1211.68 719.12 1212.4 720.01C1213.62 721.53 1214.32 722.26 1214.94 722.62C1215.34 722.86 1215.97 723.48 1216.32 723.99C1216.68 724.51 1217.13 724.94 1217.32 724.94C1217.51 724.94 1218.11 725.38 1218.65 725.93C1219.64 726.92 1222.38 728.45 1224.28 729.09C1225.01 729.33 1226.19 729.38 1228.53 729.29C1230.32 729.22 1236.07 729.08 1241.3 728.98ZM316.36 728.68C318.24 728.29 320.49 727.16 321.82 725.93C322.42 725.38 323 724.94 323.11 724.94C323.23 724.94 323.83 724.46 324.45 723.87C325.07 723.29 326.04 722.44 326.61 721.99C328.61 720.41 329.12 717.18 328.42 710.56C328.31 709.46 328.31 707.97 328.42 707.23C328.71 705.49 328.12 703.78 327.03 703.16C325.93 702.54 295.47 702.83 294.28 703.48C293.87 703.71 293.01 704.08 292.36 704.3C290.65 704.91 289.64 705.67 288.71 707.05L287.89 708.28L287.96 717.09L288.03 725.91L288.88 726.78C289.34 727.26 290.02 727.72 290.38 727.81C290.74 727.9 291.37 728.13 291.78 728.33C293.31 729.04 313.2 729.32 316.36 728.68ZM732.28 728.24C734.14 727.33 735.56 725.12 736.14 722.24C736.53 720.3 736.47 674.68 736.08 673.27C735.65 671.72 733.66 669.32 732.21 668.59L731 667.98L714.52 668.02C695.72 668.07 697.12 667.9 694.96 670.34C693.46 672.04 693.52 670.89 693.53 698.31C693.54 726.31 693.44 724.78 695.33 726.59C697.22 728.4 698.9 728.61 714.16 728.91C727.61 729.18 730.6 729.07 732.28 728.24ZM860.05 728.16C861.22 727.63 861.87 727.14 862.43 726.37C862.85 725.79 863.5 725.16 863.86 724.97C864.23 724.78 864.86 724.28 865.25 723.86C865.64 723.44 866.38 722.88 866.88 722.62C870.73 720.59 870.59 721.64 870.47 695.01C870.43 687.15 870.42 680.63 870.45 680.51C870.52 680.27 870.17 678 869.99 677.54C869.88 677.24 867.31 674.94 862.79 671.06C861.99 670.37 861.2 669.69 861.05 669.54C859.72 668.23 858.79 668.1 849.28 667.95C831.45 667.67 829.79 667.85 827.82 670.25C826.45 671.93 826.44 672.1 826.42 690.91C826.41 700.45 826.36 708.32 826.3 708.41C826.08 708.77 826.65 723.63 826.92 724.56C827.42 726.26 827.92 726.74 830.66 728.12C832.35 728.97 835.33 729.11 849.36 728.98L858.45 728.89L860.05 728.16ZM1157.41 728.17C1159.34 726.95 1159.68 726.66 1159.97 725.98C1160.13 725.61 1160.4 725.14 1160.57 724.93C1161.77 723.49 1161.79 722.93 1161.73 696.76L1161.68 672.22L1160.79 670.98C1160.31 670.31 1159.91 669.62 1159.91 669.46C1159.91 668.22 1158.33 668.07 1144.28 667.94C1128.45 667.79 1128.42 667.79 1126 669.91C1125.44 670.41 1124.43 671.26 1123.77 671.81C1121.47 673.72 1119.42 676.01 1118.49 677.72C1117.84 678.92 1117.67 717.02 1118.31 718.76C1118.52 719.34 1118.8 720.18 1118.94 720.62C1119.09 721.13 1119.57 721.69 1120.24 722.16C1120.82 722.56 1121.8 723.36 1122.42 723.93C1123.03 724.5 1123.98 725.4 1124.53 725.91C1128.1 729.26 1127.77 729.2 1143.28 729.02L1156.28 728.88L1157.41 728.17ZM1636.5 728.54C1639.22 727.4 1640.06 726.85 1642.44 724.64C1643.73 723.44 1645.18 722.2 1645.66 721.88C1647.18 720.86 1647.29 720.14 1647.63 708.56C1648.11 692.55 1648.01 680.3 1647.39 678.5C1646.9 677.09 1641.12 670.94 1640.28 670.94C1640.13 670.94 1639.53 670.54 1638.97 670.05C1636.67 668.09 1636.6 668.08 1622.44 667.99C1607.25 667.9 1607.13 667.92 1605.6 670.87C1604.61 672.77 1604.61 672.73 1604.52 694.66C1604.47 706.16 1604.37 717.38 1604.31 719.59L1604.19 723.63L1605.24 725.25C1607.22 728.34 1608.71 728.72 1619.36 728.81C1623.66 728.84 1627.25 728.94 1627.34 729.03C1627.86 729.55 1635 729.17 1636.5 728.54ZM1775.23 727.63C1778.6 724.81 1779.31 720.48 1778.39 708.31C1778.23 706.25 1778.17 703.44 1778.26 702.06C1778.66 695.56 1778.7 690.79 1778.42 684.81C1778.21 680.33 1778.19 677.85 1778.36 676.81C1778.8 674.19 1777.66 671.69 1774.72 668.8C1773.83 667.93 1773.47 667.92 1756.47 667.93L1740.41 667.95L1739.01 668.63C1737.71 669.26 1736.68 670.45 1736.05 672.06C1735.03 674.68 1735.07 673.55 1734.99 698.35L1734.92 721.88L1736.06 724.1C1737.38 726.67 1737.63 726.97 1739.23 728.06L1740.42 728.86L1757.23 728.75L1774.03 728.63L1775.23 727.63ZM474.25 696.11C475.18 695.5 474.99 693.8 473.79 691.81C473.33 691.04 472.91 689.93 472.82 689.24C472.72 688.55 472.33 687.51 471.89 686.82C471.47 686.16 470.84 684.88 470.49 683.97C470.13 683.06 469.47 681.45 469.01 680.4C468.55 679.35 468.05 677.94 467.9 677.28C467.76 676.62 467.55 675.97 467.44 675.82C467.33 675.68 466.87 674.38 466.42 672.94C465.24 669.15 464.81 667.99 463.96 666.36C463.54 665.56 463.06 664.33 462.9 663.61C462.73 662.9 462.22 661.75 461.76 661.06C461.29 660.34 460.64 658.77 460.26 657.43C459.89 656.13 459.28 654.44 458.9 653.69C458.53 652.93 458.05 651.64 457.83 650.81C457.46 649.36 457.01 648.27 455.81 645.94C455.49 645.32 455.04 643.97 454.81 642.94C454.32 640.75 454.08 640.38 452.93 639.98C451.02 639.32 450.62 639.59 450.02 641.91C449.8 642.77 449.25 644.12 448.8 644.9C448.34 645.67 447.9 646.59 447.8 646.94C447.56 647.82 446.96 649.31 446.15 651.06C445.76 651.89 445.26 653.24 445.02 654.06C444.78 654.89 444.21 656.27 443.75 657.14C443.29 658.01 442.67 659.53 442.38 660.52C442.08 661.5 441.49 662.93 441.05 663.69C440.62 664.44 440.06 665.62 439.81 666.31C439.56 667 439.03 668.15 438.63 668.87C438.23 669.59 437.56 671.39 437.13 672.87C436.71 674.35 436.27 675.68 436.15 675.82C436.04 675.96 435.53 677.31 435.03 678.82C434.53 680.33 433.8 682.12 433.42 682.81C433.03 683.5 432.53 684.68 432.29 685.44C432.06 686.19 431.38 687.99 430.78 689.44C430.18 690.88 429.55 692.84 429.38 693.78L429.06 695.5L429.76 696.1L430.45 696.7L452 696.63C472.39 696.57 473.59 696.54 474.25 696.11ZM1052.81 696.28C1053.47 695.97 1053.66 695.73 1053.66 695.2C1053.66 694.22 1051.74 688.77 1050.92 687.42C1050.54 686.8 1050.03 685.61 1049.79 684.8C1049.56 683.98 1049.05 682.64 1048.67 681.81C1047.82 680 1046.91 677.36 1046.91 676.72C1046.91 676.47 1046.52 675.52 1046.04 674.62C1045.55 673.71 1045.04 672.37 1044.89 671.64C1044.74 670.91 1044.12 669.3 1043.52 668.06C1042.92 666.82 1042.26 665.1 1042.06 664.22C1041.86 663.34 1041.3 661.88 1040.83 660.97C1040.35 660.06 1039.68 658.47 1039.33 657.44C1038.97 656.41 1038.35 654.94 1037.94 654.19C1037.53 653.43 1037.01 652.08 1036.79 651.19C1036.56 650.29 1036.09 649.06 1035.74 648.44C1035.39 647.82 1034.83 646.13 1034.49 644.69C1033.83 641.86 1033.71 641.61 1032.21 640C1030.7 638.39 1029.92 638.66 1029.17 641.06C1029 641.61 1028.42 642.98 1027.89 644.09C1027.35 645.21 1026.91 646.25 1026.91 646.4C1026.91 646.91 1025.85 649.8 1025.43 650.44C1025.02 651.05 1024.09 653.65 1023.8 654.99C1023.72 655.37 1023.3 656.27 1022.87 656.99C1022.44 657.72 1021.88 658.92 1021.63 659.66C1021.37 660.4 1020.71 661.79 1020.15 662.76C1019.6 663.72 1019.04 665.02 1018.9 665.66C1018.66 666.76 1018.4 667.48 1017.37 669.86C1017.11 670.44 1016.91 671.03 1016.91 671.17C1016.91 671.76 1015.79 674.66 1015.03 676.06C1014.58 676.89 1014.09 678.15 1013.94 678.88C1013.79 679.6 1013.32 680.87 1012.91 681.69C1012.49 682.52 1011.86 684.12 1011.5 685.25C1010.94 687.07 1009.8 689.72 1008.42 692.44C1007.44 694.36 1007.57 695.75 1008.78 696.39C1009.71 696.88 1051.76 696.78 1052.81 696.28ZM906.82 637.24C905.19 636.6 905.02 635.84 905.11 629.24C905.25 619.05 905.32 618.98 915.01 619.07L920.74 619.13L921.57 619.79C923.85 621.61 923.57 635.94 921.22 637.22C920.41 637.66 907.91 637.68 906.82 637.24ZM1684.5 637.52C1683.07 637.22 1683.03 637.03 1683.03 628.97C1683.03 618.93 1682.53 619.46 1692.28 619.26C1701.23 619.08 1700.79 618.66 1701.05 627.69C1701.24 634.34 1701.05 636.26 1700.12 637.1C1699.63 637.55 1686.35 637.91 1684.5 637.52Z"/>
</svg>
